<mxfile host="app.diagrams.net" modified="2020-12-22T07:03:44.484Z" agent="5.0 (Windows NT 10.0; WOW64) AppleWebKit/537.36 (KHTML, like Gecko) Chrome/78.0.3904.108 Safari/537.36" etag="j8DXeAr2HCukqYgzFWLc" version="14.0.5" type="github">
  <diagram id="_tgmMXCBhrPCcZTAboag" name="第 1 页">
    <mxGraphModel dx="942" dy="669" grid="0" gridSize="10" guides="1" tooltips="1" connect="1" arrows="1" fold="1" page="1" pageScale="1" pageWidth="4681" pageHeight="3300" math="0" shadow="0">
      <root>
        <mxCell id="0" />
        <mxCell id="1" parent="0" />
        <mxCell id="gep48guoq1CEQ4S3Kgga-19" style="edgeStyle=orthogonalEdgeStyle;rounded=0;orthogonalLoop=1;jettySize=auto;html=1;shadow=0;strokeColor=#000000;strokeWidth=3;" edge="1" parent="1" source="gep48guoq1CEQ4S3Kgga-1">
          <mxGeometry relative="1" as="geometry">
            <mxPoint x="693" y="279.5" as="targetPoint" />
          </mxGeometry>
        </mxCell>
        <mxCell id="gep48guoq1CEQ4S3Kgga-1" value="MG 1" style="rounded=1;whiteSpace=wrap;html=1;" vertex="1" parent="1">
          <mxGeometry x="783" y="159" width="388" height="241" as="geometry" />
        </mxCell>
        <mxCell id="gep48guoq1CEQ4S3Kgga-3" value="" style="shape=link;html=1;shadow=0;strokeWidth=3;" edge="1" parent="1">
          <mxGeometry width="100" relative="1" as="geometry">
            <mxPoint x="690" y="566" as="sourcePoint" />
            <mxPoint x="690" y="171" as="targetPoint" />
          </mxGeometry>
        </mxCell>
        <mxCell id="gep48guoq1CEQ4S3Kgga-16" style="edgeStyle=orthogonalEdgeStyle;rounded=0;orthogonalLoop=1;jettySize=auto;html=1;shadow=0;strokeColor=#000000;strokeWidth=3;" edge="1" parent="1" source="gep48guoq1CEQ4S3Kgga-9">
          <mxGeometry relative="1" as="geometry">
            <mxPoint x="693" y="523" as="targetPoint" />
          </mxGeometry>
        </mxCell>
        <mxCell id="gep48guoq1CEQ4S3Kgga-9" value="MG N" style="rounded=1;whiteSpace=wrap;html=1;" vertex="1" parent="1">
          <mxGeometry x="876" y="490" width="136" height="66" as="geometry" />
        </mxCell>
        <mxCell id="gep48guoq1CEQ4S3Kgga-20" style="edgeStyle=orthogonalEdgeStyle;rounded=0;orthogonalLoop=1;jettySize=auto;html=1;shadow=0;strokeColor=#000000;strokeWidth=3;" edge="1" parent="1" source="gep48guoq1CEQ4S3Kgga-11">
          <mxGeometry relative="1" as="geometry">
            <mxPoint x="686" y="385.5" as="targetPoint" />
          </mxGeometry>
        </mxCell>
        <mxCell id="gep48guoq1CEQ4S3Kgga-11" value="&lt;div&gt;&lt;span style=&quot;font-size: 24px&quot;&gt;&amp;nbsp;power plant&lt;/span&gt;&lt;/div&gt;&lt;div&gt;&lt;br&gt;&lt;/div&gt;" style="rounded=1;whiteSpace=wrap;html=1;" vertex="1" parent="1">
          <mxGeometry x="137" y="271" width="376" height="229" as="geometry" />
        </mxCell>
        <mxCell id="gep48guoq1CEQ4S3Kgga-18" value="" style="endArrow=none;dashed=1;html=1;dashPattern=1 3;strokeWidth=2;shadow=0;" edge="1" parent="1">
          <mxGeometry width="50" height="50" relative="1" as="geometry">
            <mxPoint x="943.5" y="483" as="sourcePoint" />
            <mxPoint x="943.5" y="419" as="targetPoint" />
          </mxGeometry>
        </mxCell>
      </root>
    </mxGraphModel>
  </diagram>
</mxfile>
